<?xml version="1.0" encoding="iso-8859-1"?>
<!-- Generator: Adobe Illustrator 19.0.0, SVG Export Plug-In . SVG Version: 6.00 Build 0)  -->
<svg version="1.1" id="Layer_1" xmlns="http://www.w3.org/2000/svg" xmlns:xlink="http://www.w3.org/1999/xlink" x="0px" y="0px"
	 viewBox="0 0 504 504" style="enable-background:new 0 0 504 504;" xml:space="preserve">
<path style="fill:#EDC654;" d="M4,43.2v308c0,7.6,6.4,15.2,14,15.2h468c7.6,0,14-7.2,14-15.2v-306c0-8.8-7.2-14.8-16-14.8H18
	C10.4,30.4,4,35.6,4,43.2z"/>
<rect x="32" y="58.4" style="fill:#CDEEF9;" width="444" height="280"/>
<path style="fill:#3C8E51;" d="M200,124.4L126.8,198L92,164.4l-58.4,58.8c-0.4,0.4,0,111.6,0,111.6H476v-95.2L400.4,164l-77.2,76.8
	L200,124.4z"/>
<path style="fill:#54B265;" d="M200,124.8l-73.2,73.6L265.2,334h157.6L200,124.8z"/>
<path style="fill:#E8BB85;" d="M92,164.8l-58.4,58.8c-0.4,0.4,0,111.2,0,111.2h233.6L92,164.8z"/>
<circle style="fill:#E9B526;" cx="316.4" cy="121.2" r="26.4"/>
<ellipse style="fill:#DF5C4E;" cx="252" cy="361.6" rx="110" ry="110"/>
<path d="M486,370.4H368c-2.4,0-4-1.6-4-4s1.6-4,4-4h118c6.4,0,10-4,10-11.2v-306c0-6.4-5.2-10.8-12-10.8H18c-8.8,0-10,4.4-10,8.8
	v308c0,6.8,3.6,11.2,10,11.2h122c2.4,0,4,1.6,4,4s-1.6,4-4,4H18c-10.8,0-18-7.6-18-19.2v-308c0-10.8,6.4-16.8,18-16.8h466
	c11.6,0,20,8,20,18.8v306C504,362.8,496.8,370.4,486,370.4z"/>
<path d="M140,342.4H32c-2.4,0-4-1.6-4-4v-280c0-2.4,1.6-4,4-4h384c2.4,0,4,1.6,4,4s-1.6,4-4,4H36v272h104c2.4,0,4,1.6,4,4
	S142.4,342.4,140,342.4z"/>
<path d="M472,342.4H364c-2.4,0-4-1.6-4-4s1.6-4,4-4h104v-272h-16c-2.4,0-4-1.6-4-4s1.6-4,4-4h20c2.4,0,4,1.6,4,4v280
	C476,340.8,474.4,342.4,472,342.4z"/>
<path d="M34,227.2c-0.8,0-2-0.4-2.8-1.2c-1.6-1.6-1.6-4,0-5.6l58-62c1.6-1.6,4-1.6,5.6,0s1.6,4,0,5.6l-58,62
	C36,226.8,35.2,227.2,34,227.2z"/>
<path d="M184,257.2c-1.2,0-2-0.4-2.8-1.2l-92-92c-1.6-1.6-1.6-4,0-5.6s4-1.6,5.6,0l92,92c1.6,1.6,1.6,4,0,5.6
	C186,256.8,185.2,257.2,184,257.2z"/>
<path d="M140,189.6c-1.2,0-2-0.4-2.8-1.2c-1.6-1.6-1.6-4,0-5.6l64-64c1.6-1.6,4-1.6,5.6,0s1.6,4,0,5.6l-64,64
	C142,189.2,141.2,189.6,140,189.6z"/>
<path d="M336,229.6c-1.2,0-2-0.4-2.8-1.2c-1.6-1.6-1.6-4,0-5.6l64.4-64.4c1.6-1.6,4-1.6,5.6,0s1.6,4,0,5.6l-64.4,64.4
	C338,229.2,337.2,229.6,336,229.6z"/>
<path d="M356.4,278c-1.2,0-2-0.4-2.8-1.2L201.2,124.4c-1.6-1.6-1.6-4,0-5.6s4-1.6,5.6,0l152.4,152.4c1.6,1.6,1.6,4,0,5.6
	C358.4,277.6,357.6,278,356.4,278z"/>
<path d="M469.2,237.6c-1.2,0-2-0.4-2.8-1.2l-68.8-72.8c-1.6-1.6-1.6-4,0-5.6s4-1.6,5.6,0l68.8,72.8c1.6,1.6,1.6,4,0,5.6
	C471.2,237.2,470,237.6,469.2,237.6z"/>
<path d="M316,150c-15.6,0-28-12.8-28-28s12.8-28,28-28c6,0,11.6,1.6,16.4,5.2c2,1.2,2.4,3.6,0.8,5.6c-1.2,2-3.6,2.4-5.6,0.8
	c-3.6-2.4-7.6-3.6-11.6-3.6c-11.2,0-20,9.2-20,20c0,11.2,9.2,20,20,20s20-9.2,20-20c0-2.4,1.6-4,4-4s4,1.6,4,4
	C344.4,137.2,331.6,150,316,150z"/>
<path d="M252,477.6c-64,0-116-52-116-116s52-116,116-116s116,52,116,116S316,477.6,252,477.6z M252,253.6c-59.6,0-108,48.4-108,108
	s48.4,108,108,108s108-48.4,108-108S311.6,253.6,252,253.6z"/>
<path d="M291.2,406c-1.2,0-2-0.4-2.8-1.2l-75.6-75.6c-1.6-1.6-1.6-4,0-5.6s4-1.6,5.6,0l75.6,75.6c1.6,1.6,1.6,4,0,5.6
	C293.2,405.6,292.4,406,291.2,406z"/>
<path d="M213.6,407.2c-1.2,0-2-0.4-2.8-1.2c-1.6-1.6-1.6-4,0-5.6l75.6-75.6c1.6-1.6,4-1.6,5.6,0s1.6,4,0,5.6L216.4,406
	C215.6,406.8,214.8,407.2,213.6,407.2z"/>
<g>
</g>
<g>
</g>
<g>
</g>
<g>
</g>
<g>
</g>
<g>
</g>
<g>
</g>
<g>
</g>
<g>
</g>
<g>
</g>
<g>
</g>
<g>
</g>
<g>
</g>
<g>
</g>
<g>
</g>
</svg>
